<svg xmlns="http://www.w3.org/2000/svg" fill="none" viewBox="0 0 44 32"><path fill="#FF5F00" d="M26.8 7.09H16.7v17.82h10.1V7.09Z"/><path fill="#EB001B" d="M17.34 16a11.15 11.15 0 0 1 4.41-8.91 11.65 11.65 0 0 0-16.9 2.9 11.19 11.19 0 0 0 0 12.02 11.47 11.47 0 0 0 4.73 4.18 11.72 11.72 0 0 0 12.17-1.28 11.35 11.35 0 0 1-4.4-8.91Z"/><path fill="#F79E1B" d="M40.42 16c0 2.13-.61 4.2-1.76 6.01a11.47 11.47 0 0 1-4.74 4.18 11.72 11.72 0 0 1-12.17-1.28A11.38 11.38 0 0 0 26.16 16a11.17 11.17 0 0 0-4.4-8.91 11.65 11.65 0 0 1 16.9 2.9 11.19 11.19 0 0 1 1.76 6Z"/></svg>