<svg width="68" height="29" viewBox="0 0 68 29" fill="none" xmlns="http://www.w3.org/2000/svg">
<g clip-path="url(#clip0_10_2)">
<mask id="mask0_10_2" style="mask-type:luminance" maskUnits="userSpaceOnUse" x="0" y="0" width="120" height="32">
<path d="M120 0H0V32H120V0Z" fill="white"/>
</mask>
<g mask="url(#mask0_10_2)">
<path d="M31 6.3L26.8 25.8H21.7L25.9 6.3H31ZM52.2 18.9L54.9 11.6L56.4 18.9H52.2ZM57.9 25.8H62.6L58.5 6.3H54.2C53.2 6.3 52.4 6.9 52 7.7L44.4 25.7H49.7L50.8 22.8H57.3L57.9 25.8ZM44.7 19.4C44.7 14.3 37.6 14 37.6 11.7C37.6 11 38.3 10.3 39.7 10.1C40.4 10 42.4 9.9 44.7 11L45.6 6.9C44.4 6.5 42.8 6 40.9 6C35.9 6 32.4 8.6 32.4 12.4C32.4 15.2 34.9 16.8 36.8 17.7C38.8 18.7 39.4 19.3 39.4 20.1C39.4 21.4 37.8 22 36.4 22C33.9 22 32.4 21.3 31.2 20.8L30.3 25C31.5 25.5 33.7 26 35.9 26C41.2 26.1 44.7 23.5 44.7 19.4ZM23.7 6.3L15.5 25.8H10.2L6.2 10.3C5.9 9.3 5.7 8.9 5 8.5C3.8 7.9 1.8 7.2 0 6.9L0.1 6.3H8.7C9.8 6.3 10.8 7 11 8.3L13.1 19.6L18.4 6.3H23.7Z" fill="white"/>
</g>
</g>
<defs>
<clipPath id="clip0_10_2">
<rect width="68" height="29" fill="white"/>
</clipPath>
</defs>
</svg>
